{
    "asset" : {
        "generator" : "Khronos glTF Blender I/O v1.3.48",
        "version" : "2.0"
    },
    "scene" : 0,
    "scenes" : [
        {
            "extras" : {
                "glTF2ExportSettings" : {
                    "export_copyright" : "",
                    "export_extras" : 1,
                    "export_format" : "GLTF_EMBEDDED",
                    "export_image_format" : "JPEG",
                    "export_yup" : 0
                }
            },
            "name" : "Scene",
            "nodes" : [
                0,
                1,
                2
            ]
        }
    ],
    "nodes" : [
        {
            "mesh" : 0,
            "name" : "\u0411\u0430\u0448\u043d\u044f1",
            "translation" : [
                1,
                1,
                1
            ]
        },
        {
            "mesh" : 1,
            "name" : "\u041a\u0440\u044b\u0448\u04301",
            "translation" : [
                1,
                1,
                1
            ]
        },
        {
            "mesh" : 2,
            "name" : "\u0421\u0442\u0435\u043d\u044b",
            "translation" : [
                1,
                1,
                1
            ]
        }
    ],
    "materials" : [
        {
            "doubleSided" : true,
            "emissiveFactor" : [
                0,
                0,
                0
            ],
            "name" : "\u041c\u0430\u0442\u0435\u0440\u0438\u0430\u043b.001",
            "pbrMetallicRoughness" : {
                "baseColorFactor" : [
                    0.39384201169013977,
                    0.4072795510292053,
                    0.07055848836898804,
                    1
                ],
                "metallicFactor" : 0,
                "roughnessFactor" : 0.5
            }
        },
        {
            "doubleSided" : true,
            "name" : "\u041c\u0430\u0442\u0435\u0440\u0438\u0430\u043b",
            "pbrMetallicRoughness" : {}
        },
        {
            "name" : "\u0421\u0442\u0435\u043d\u044b",
            "pbrMetallicRoughness" : {}
        }
    ],
    "meshes" : [
        {
            "name" : "\u0426\u0438\u043b\u0438\u043d\u0434\u0440.004",
            "primitives" : [
                {
                    "attributes" : {
                        "POSITION" : 0,
                        "NORMAL" : 1
                    },
                    "indices" : 2,
                    "material" : 0
                }
            ]
        },
        {
            "name" : "\u0426\u0438\u043b\u0438\u043d\u0434\u0440.005",
            "primitives" : [
                {
                    "attributes" : {
                        "POSITION" : 3,
                        "NORMAL" : 4,
                        "TEXCOORD_0" : 5
                    },
                    "indices" : 6,
                    "material" : 1
                }
            ]
        },
        {
            "name" : "\u0426\u0438\u043b\u0438\u043d\u0434\u0440.006",
            "primitives" : [
                {
                    "attributes" : {
                        "POSITION" : 7,
                        "NORMAL" : 8,
                        "TEXCOORD_0" : 9
                    },
                    "indices" : 10,
                    "material" : 2
                }
            ]
        }
    ],
    "accessors" : [
        {
            "bufferView" : 0,
            "componentType" : 5126,
            "count" : 20,
            "max" : [
                0.09986859560012817,
                0.5480352640151978,
                -0.4147456884384155
            ],
            "min" : [
                -0.09573644399642944,
                0.28544238209724426,
                -0.8656414747238159
            ],
            "type" : "VEC3"
        },
        {
            "bufferView" : 1,
            "componentType" : 5126,
            "count" : 20,
            "type" : "VEC3"
        },
        {
            "bufferView" : 2,
            "componentType" : 5123,
            "count" : 30,
            "type" : "SCALAR"
        },
        {
            "bufferView" : 3,
            "componentType" : 5126,
            "count" : 128,
            "max" : [
                0.23377631604671478,
                0.62885582447052,
                -0.15039199590682983
            ],
            "min" : [
                -0.21261700987815857,
                0.18755756318569183,
                -0.4243745803833008
            ],
            "type" : "VEC3"
        },
        {
            "bufferView" : 4,
            "componentType" : 5126,
            "count" : 128,
            "type" : "VEC3"
        },
        {
            "bufferView" : 5,
            "componentType" : 5126,
            "count" : 128,
            "type" : "VEC2"
        },
        {
            "bufferView" : 6,
            "componentType" : 5123,
            "count" : 186,
            "type" : "SCALAR"
        },
        {
            "bufferView" : 7,
            "componentType" : 5126,
            "count" : 932,
            "max" : [
                1,
                1,
                -0.4147456884384155
            ],
            "min" : [
                -1,
                -1,
                -1
            ],
            "type" : "VEC3"
        },
        {
            "bufferView" : 8,
            "componentType" : 5126,
            "count" : 932,
            "type" : "VEC3"
        },
        {
            "bufferView" : 9,
            "componentType" : 5126,
            "count" : 932,
            "type" : "VEC2"
        },
        {
            "bufferView" : 10,
            "componentType" : 5123,
            "count" : 1530,
            "type" : "SCALAR"
        }
    ],
    "bufferViews" : [
        {
            "buffer" : 0,
            "byteLength" : 240,
            "byteOffset" : 0
        },
        {
            "buffer" : 0,
            "byteLength" : 240,
            "byteOffset" : 240
        },
        {
            "buffer" : 0,
            "byteLength" : 60,
            "byteOffset" : 480
        },
        {
            "buffer" : 0,
            "byteLength" : 1536,
            "byteOffset" : 540
        },
        {
            "buffer" : 0,
            "byteLength" : 1536,
            "byteOffset" : 2076
        },
        {
            "buffer" : 0,
            "byteLength" : 1024,
            "byteOffset" : 3612
        },
        {
            "buffer" : 0,
            "byteLength" : 372,
            "byteOffset" : 4636
        },
        {
            "buffer" : 0,
            "byteLength" : 11184,
            "byteOffset" : 5008
        },
        {
            "buffer" : 0,
            "byteLength" : 11184,
            "byteOffset" : 16192
        },
        {
            "buffer" : 0,
            "byteLength" : 7456,
            "byteOffset" : 27376
        },
        {
            "buffer" : 0,
            "byteLength" : 3060,
            "byteOffset" : 34832
        }
    ],
    "buffers" : [
        {
            "byteLength" : 37892,
            "uri" : "data:application/octet-stream;base64,"
        }
    ]
}
